<svg width="236" height="62" viewBox="0 0 236 62" fill="none" xmlns="http://www.w3.org/2000/svg">
<path fill-rule="evenodd" clip-rule="evenodd" d="M91.4443 20.4887C92.8292 20.6898 93.416 21.241 93.1993 22.5041C93.124 22.9429 92.879 23.5321 92.5896 24.228C92.0461 25.535 91.346 27.2184 91.3202 28.9887C91.3043 30.0774 91.4821 31.0233 91.6236 31.7762C91.8347 32.8992 91.9651 33.5929 91.2515 33.6908C90.0595 33.8542 88.0958 32.5593 87.7548 28.7557C87.7051 28.201 87.6718 27.6735 87.6557 27.1731C86.9358 27.1002 86.0653 27.0639 85.1932 27.1389C83.1172 27.3175 80.8064 29.3724 80.7484 33.34C80.6905 37.3076 82.7147 40.679 85.8242 40.7244C87.8785 40.7544 89.1278 40.1346 89.8578 39.7724C90.2328 39.5863 90.4708 39.4682 90.6104 39.5411C90.8482 39.6653 90.8071 39.9249 90.7695 40.1628C90.7419 40.3366 90.7163 40.4989 90.8025 40.5883C91.0067 40.8001 89.2873 44.9523 84.1078 44.6678C78.9283 44.3833 75.0506 40.1494 74.9257 34.5081C74.8007 28.8669 77.7761 23.8976 82.3398 23.7554C84.5778 23.6856 86.4565 24.024 87.7809 24.4116C87.9977 22.9449 88.4775 21.8676 89.2533 21.1802C90.0799 20.4479 90.7772 20.4691 91.2943 20.4849C91.3462 20.4865 91.3962 20.488 91.4443 20.4887Z" fill="#1B2C4C"/>
<path fill-rule="evenodd" clip-rule="evenodd" d="M106.327 23.3905C102.686 23.3344 96.4349 26.1511 96.5839 30.8591C96.733 35.5671 102.227 41.0297 116.58 41.0268C130.933 41.0239 134.655 35.2552 134.695 32.3427C134.736 29.4303 131.808 24.2313 124.318 23.6677C116.828 23.1041 108.854 26.5665 108.826 28.5828C108.798 30.5992 109.882 29.7195 110.099 29.4988C110.316 29.2781 114.64 26.4316 122.329 28.1187C130.017 29.8057 130.418 31.8286 130.61 33.4002C130.883 35.6227 127.963 38.9614 118.97 38.5988C109.978 38.2361 101.739 34.6882 101.659 31.2153C101.609 29.0654 103.987 27.9464 106.273 27.3188C108.554 26.6927 109.194 26.372 109.304 25.0049C109.414 23.6379 106.327 23.3905 106.327 23.3905ZM113.094 43.1244C114.05 43.6199 115.057 44.1424 116.83 44.1697C119.319 44.2081 120.896 43.7321 121.719 43.4835C122.011 43.3956 122.208 43.3361 122.318 43.3378C122.655 43.343 123.056 43.467 122.726 44.2606C121.868 45.393 119.14 47.6881 115.094 47.809C110.037 47.9602 108.591 45.8758 108.403 44.269C108.252 42.9835 109.482 42.3762 110.116 42.2332C111.414 42.2532 112.233 42.6778 113.094 43.1244Z" fill="#1B2C4C"/>
<path fill-rule="evenodd" clip-rule="evenodd" d="M161.217 25.7216C161.25 25.9161 161.285 26.1215 161.348 26.3252C161.502 26.8234 161.438 28.3639 161.363 30.1506L161.363 30.1506L161.363 30.1507L161.363 30.1507C161.346 30.5667 161.328 30.996 161.312 31.4286C162.102 30.2648 163.273 28.7949 164.641 27.555C165.402 26.8655 166.234 26.1672 166.971 25.5655C167.12 24.5054 167.498 23.6458 168.124 22.9834C168.973 22.0869 169.783 21.957 170.385 21.8607L170.385 21.8607L170.385 21.8607C170.445 21.851 170.503 21.8417 170.559 21.832C172.193 21.7297 172.955 22.1432 172.892 23.428C172.87 23.8744 172.675 24.5048 172.443 25.2494C172.009 26.6479 171.449 28.4491 171.683 30.1898C171.827 31.2603 172.174 32.1489 172.45 32.8563C172.862 33.9114 173.116 34.5631 172.305 34.8132C170.948 35.2311 168.481 34.3864 167.519 30.7321C167.294 29.8801 167.129 29.087 167.026 28.3524C165.61 29.2872 164.188 30.3791 163.442 31.4046C162.798 32.2882 162.28 33.0564 161.887 33.6601C164.409 33.4114 166.632 33.8621 168.106 35.6861C169.143 36.9686 169.328 37.6864 169.622 38.8262C169.802 39.5247 170.024 40.3818 170.507 41.6245C171.681 44.644 173.066 46.2841 173.899 47.2703C174.281 47.7218 174.546 48.0363 174.623 48.2833C174.867 49.07 174.519 49.609 173.814 49.8276C173.109 50.0462 167.691 48.3643 166.274 44.62C165.56 42.7317 165.262 41.4394 165.036 40.4574C164.825 39.5449 164.677 38.9002 164.313 38.2939C163.408 36.7847 162.424 36.3224 161.369 36.1409L161.392 36.4256L161.392 36.4256C161.669 39.8915 162.192 46.4296 160.646 46.9089C158.929 47.441 156.813 45.9246 155.615 41.2996C154.416 36.6745 155.061 31.4837 155.928 29.4374C157.403 25.9571 158.547 24.9662 159.405 24.7001C160.988 24.382 161.088 24.9696 161.217 25.7216Z" fill="#1B2C4C"/>
<path fill-rule="evenodd" clip-rule="evenodd" d="M194.272 34.692C194.769 39.6179 195.203 43.9243 197.332 45.7886C199.363 47.5666 199.341 48.0897 199.326 48.4704C199.324 48.5091 199.323 48.5463 199.324 48.5832C199.331 48.9833 199.189 49.3311 198.09 49.4749C197.233 49.5872 191.895 47.6058 189.718 42.3708C187.517 44.5961 184.847 46.8053 181.585 46.5194C178.398 46.2401 176.157 45.2287 175.477 41.0598C175.354 34.6152 180.187 32.8051 183.842 31.4365C185.218 30.9209 186.428 30.4679 187.142 29.8534C186.809 29.1549 186.412 28.7411 185.894 28.4943C185.801 28.4499 185.707 28.4054 185.613 28.3606C184.066 27.6277 182.362 26.8207 182.337 25.501C182.314 24.3088 183.048 23.7369 185.803 23.6845C189.158 23.6207 193.582 27.9236 194.195 33.9397C194.221 34.1919 194.247 34.4428 194.272 34.692ZM187.756 31.7496C184.672 32.8787 181.632 35.4675 181.698 38.9305C181.755 41.9165 183.702 42.0981 185.503 42.0639C186.731 42.0405 188.223 41.0461 189.083 40.3337C189.007 39.982 188.945 39.6187 188.898 39.2436C188.466 35.7722 188.138 33.3883 187.756 31.7496Z" fill="#1B2C4C"/>
<path d="M12.5399 38.4516C13.8758 40.5911 13.4999 43.1309 13.145 44.1334C13.1186 45.0833 12.5603 46.8678 10.5382 46.4073C8.01058 45.8317 8.75204 40.0742 6.40497 39.5397C5.50225 39.3341 4.72726 41.0693 4.29838 42.1187C3.8695 43.1681 2.22531 48.72 9.08598 50.2824C15.9467 51.8448 19.8137 47.3727 21.014 42.102C21.9669 37.9179 20.1535 32.5386 24.0134 23.0944C27.8734 13.6502 35.133 12.627 36.2726 13.4601C37.4122 14.2931 35.5426 17.4996 34.9667 22.5301C34.4229 27.2798 34.1897 32.6127 34.6234 34.8781C35.327 31.7884 37.2962 26.3105 39.4239 22.9716C42.0835 18.798 46.7256 12.5907 49.1555 12.7617C51.3723 12.9177 49.1362 18.6836 47.522 25.7717C45.9077 32.8598 47.7353 39.0112 49.3224 42.049C50.9094 45.0868 52.9104 46.3072 52.8276 46.6707C52.7448 47.0342 51.9962 47.8196 49.6906 47.1033C47.3849 46.3871 44.8123 43.5071 42.5409 37.637C40.7238 32.941 41.5 24.9738 42.2826 22.0933C41.06 24.6824 39.2055 25.5983 37.5085 33.0499C36.7589 36.3415 35.9014 45.1101 35.0965 45.3091C34.2915 45.5081 31.7982 39.7787 31.2608 32.9653C30.831 27.5146 32.2159 21.2664 32.9621 18.8237C25.7168 29.791 27.3717 31.6972 24.0833 42.801C20.7949 53.9048 10.8386 52.5932 8.67208 52.0998C6.50556 51.6064 0.352085 49.4404 1.70297 42.6747C3.05386 35.909 7.39834 35.1778 8.84269 35.5067C10.287 35.8357 10.8701 35.7773 12.5399 38.4516Z" fill="#1B2C4C"/>
<path d="M52.4298 34.1899C52.1126 27.5613 55.4844 23.4706 58.3848 23.306C58.7267 23.518 59.4896 24.1915 59.8063 25.1897C60.202 26.4375 58.3122 28.2729 58.2397 33.2398C58.1671 38.2067 59.5705 41.3321 62.4739 40.9605C63.3921 40.843 64.7898 38.3034 64.7898 38.3034C64.3089 38.1584 63.406 36.6686 63.6417 31.8697C63.9363 25.871 67.296 22.6081 69.3625 22.8453C71.4291 23.0825 71.1949 24.9421 71.1586 27.4255C71.1224 29.909 69.6465 31.7504 70.4018 36.7294C71.006 40.7126 73.4743 43.6742 74.633 44.6571C74.6289 44.933 74.0414 45.4764 71.7235 45.4426C69.4056 45.4087 67.0708 42.7527 66.1931 41.4289C65.1382 42.7934 62.3253 45.4709 59.5131 45.2642C55.9978 45.0059 52.747 40.8185 52.4298 34.1899Z" fill="#1B2C4C"/>
<path fill-rule="evenodd" clip-rule="evenodd" d="M142.753 26.1514C142.749 26.2672 142.745 26.3829 142.741 26.4982C142.672 28.7833 142.829 30.6936 144.131 31.6516C144.391 31.8426 144.687 31.9924 145.001 32.1086C145.703 29.6984 146.844 28.0317 147.267 27.457C147.978 26.4891 150.863 23.2356 152.279 23.1499C154.03 23.044 153.38 24.3206 152.849 25.3642C152.685 25.6872 152.532 25.9879 152.465 26.2183C151.131 29.3804 150.867 30.2605 150.419 33.7361C150.197 35.4683 150.462 37.627 150.707 39.6191C151.077 42.6234 151.4 45.2489 149.931 45.4612C147.487 45.8143 145.292 43.4838 144.548 37.9865C144.39 36.8169 144.39 35.7121 144.495 34.6883C142.195 34.4705 137.799 32.2632 137.141 27.7135C136.571 23.7668 138.761 21.8096 140.923 21.6788C142.897 21.7563 142.824 23.9717 142.753 26.1514Z" fill="#1B2C4C"/>
<rect x="207.125" y="45.7739" width="7.60419" height="6.08742" rx="1" transform="rotate(-46.1252 207.125 45.7739)" fill="#7796B1"/>
<rect x="214.154" y="36.834" width="6.13192" height="4.90883" rx="1" transform="rotate(-46.1252 214.154 36.834)" fill="#F5AC51"/>
<rect x="218.017" y="28.5317" width="6.13192" height="4.90883" rx="1" transform="rotate(-46.1252 218.017 28.5317)" fill="#F5AC51"/>
<rect x="227.379" y="22.4214" width="4.41562" height="3.53486" rx="1" transform="rotate(-46.1252 227.379 22.4214)" fill="#F5AC51"/>
<rect x="228.211" y="31.8589" width="6.13192" height="4.90883" rx="1" transform="rotate(-46.1252 228.211 31.8589)" fill="#F5AC51"/>
<rect x="220.549" y="39.8042" width="6.13192" height="4.90883" rx="1" transform="rotate(-46.1252 220.549 39.8042)" fill="#F5AC51"/>
<rect x="203.553" y="36.4751" width="6.13192" height="4.90883" rx="1" transform="rotate(-46.1252 203.553 36.4751)" fill="#F5AC51"/>
<rect x="199.301" y="30.3877" width="6.13192" height="4.90883" rx="1" transform="rotate(-46.1252 199.301 30.3877)" fill="#F5AC51"/>
<rect x="206.29" y="22.6851" width="5.00011" height="4.00277" rx="1" transform="rotate(-46.1252 206.29 22.6851)" fill="#C4C4C4"/>
<rect x="205.553" y="16.3418" width="5.00011" height="4.00277" rx="1" transform="rotate(-46.1252 205.553 16.3418)" fill="#C4C4C4"/>
<rect x="215.159" y="11.2144" width="5.00011" height="4.00277" rx="1" transform="rotate(-46.1252 215.159 11.2144)" fill="#F5AC51"/>
<rect x="212.345" y="3.43115" width="3.43121" height="2.7468" rx="1" transform="rotate(-46.1252 212.345 3.43115)" fill="#F5AC51"/>
</svg>
