<svg width="21" height="21" viewBox="0 0 21 21" fill="none" xmlns="http://www.w3.org/2000/svg">
<path d="M9.13875 15.3263C9.5775 15.765 10.2863 15.765 10.725 15.3263L14.7638 11.2875C14.868 11.1834 14.9508 11.0598 15.0072 10.9237C15.0637 10.7876 15.0927 10.6417 15.0927 10.4944C15.0927 10.347 15.0637 10.2011 15.0072 10.065C14.9508 9.92895 14.868 9.80533 14.7638 9.70125L10.725 5.6625C10.5147 5.45215 10.2294 5.33398 9.93188 5.33398C9.6344 5.33398 9.3491 5.45215 9.13875 5.6625C8.9284 5.87285 8.81023 6.15814 8.81023 6.45562C8.81023 6.7531 8.9284 7.0384 9.13875 7.24875L11.2537 9.375H1.5C0.88125 9.375 0.375 9.88125 0.375 10.5C0.375 11.1187 0.88125 11.625 1.5 11.625H11.2537L9.13875 13.74C8.7 14.1788 8.71125 14.8988 9.13875 15.3263ZM18.375 0.375H2.625C2.02826 0.375 1.45597 0.612053 1.03401 1.03401C0.612053 1.45597 0.375 2.02826 0.375 2.625V6C0.375 6.61875 0.88125 7.125 1.5 7.125C2.11875 7.125 2.625 6.61875 2.625 6V3.75C2.625 3.13125 3.13125 2.625 3.75 2.625H17.25C17.8687 2.625 18.375 3.13125 18.375 3.75V17.25C18.375 17.8687 17.8687 18.375 17.25 18.375H3.75C3.13125 18.375 2.625 17.8687 2.625 17.25V15C2.625 14.3813 2.11875 13.875 1.5 13.875C0.88125 13.875 0.375 14.3813 0.375 15V18.375C0.375 19.6125 1.3875 20.625 2.625 20.625H18.375C19.6125 20.625 20.625 19.6125 20.625 18.375V2.625C20.625 1.3875 19.6125 0.375 18.375 0.375Z" fill="#7796B1"/>
</svg>
